<?xml version="1.0" encoding="utf-8"?>
<!-- Generator: Adobe Illustrator 28.0.0, SVG Export Plug-In . SVG Version: 6.00 Build 0)  -->
<svg version="1.1" id="Слой_1" xmlns="http://www.w3.org/2000/svg" xmlns:xlink="http://www.w3.org/1999/xlink" x="0px" y="0px"
	 viewBox="0 0 724.6950073 1000" enable-background="new 0 0 724.6950073 1000" xml:space="preserve">
<g id="Group">
	<path id="Vector_2" fill="#2978AE" d="M93.918396,594.6341553c0-27.6937866,105.210907-43.125,154.1508789-46.8843994
		l4.7553253,2.7719116c-18.8231354,3.3624878-94.3134155,16.6156006-94.3134155,34.0218506
		c0,18.7937622,115.7121429,31.2562866,183.0792999,31.2562866c114.1280823,0,191.7967834-17.2094116,212.5999451-22.9468994
		l29.1281128,17.0124512c-20.0125122,9.6937256-105.8062134,35.4093628-241.7280579,35.4093628
		c-151.1789856,0-247.4739685-29.4749146-247.4739685-50.4437256L93.918396,594.6341553z M324.1530151,983.340271
		c-59.8365479,0.59375-132.7509003-4.3500366-194.1736908-14.6375122l-5.7459335,3.3624878
		c61.2246628,18.0031128,146.4236755,28.6843262,239.9445801,27.8937378
		c183.8718262-1.5843506,332.8717041-47.0812378,335.8436279-101.874939l-2.1812744-1.1875
		c-12.2843628,15.0343628-91.9343262,84.2687378-373.6873169,86.6437378V983.340271z M339.8061218,948.1309204
		c150.3874512-1.3843994,318.803009-30.6625366,318.4092712-80.1156006c0-8.9031372-5.9468994-15.0343628-10.9000244-18.7937622
		l-2.3781128,1.3843994c-13.8687134,38.1780396-131.562439,66.4655762-305.131134,68.0499268
		c-112.1449585,0.9875488-267.2864685-25.9156494-267.4845886-56.7749634
		c-0.1981201-31.0562744,73.5090485-48.0687256,73.5090485-48.0687256l-5.1515808-2.9656372
		C90.7480927,817.5715942-0.3949873,841.1121826,0.001288,875.3340454
		C0.3975623,924.7871704,209.8286743,949.1183472,339.8061218,948.1309204z M678.8184814,607.8872681
		c-2.9718628,57.9593506-56.6655884,93.9624634-110.3624878,124.624939l4.9562378,2.7687378
		c57.2593994-16.0250244,159.2999878-62.906189,150.78125-134.7124023
		c-4.1594238-35.8062744-37.0531006-61.5218506-79.8499756-61.5218506c-13.2749634,0-25.1624756,2.375-34.8718872,5.3406372
		l-1.9812622,5.1436768C645.7310181,542.0153809,680.8028564,569.9060059,678.8184814,607.8872681z M236.775528,780.184082
		c-17.4362488,3.5625-55.4784088,12.265625-55.4784088,30.6624756c0,25.5187378,81.4343262,45.1000366,160.0964966,45.1000366
		c108.1812134,0,152.3655701-27.6937866,154.546814-29.2750244l-44.9780884-25.9155884
		c-19.2187805,4.5499878-51.3187561,11.671814-109.3718567,11.671814c-64.7911987,0-106.9946289-11.078125-106.9946289-23.1437378
		c0-2.5718384,1.5852966-5.5374756,4.5571899-7.9124756l-2.1793823-1.3843384L236.775528,780.184082z M502.4779358,693.9371948
		c-24.9656067,7.1219482-80.8406067,18.3969116-161.0843201,18.3969116c-80.2471313,0-142.8587036-13.453125-143.0568237-29.2781372
		c0-10.484314,12.6809387-15.0343628,12.6809387-15.0343628l-2.1796875-1.3843994
		c-37.6459198,6.7282104-72.7162323,17.0125732-72.5180969,32.2437744
		c0.3962402,27.8937378,107.1921387,48.8624268,205.0736694,48.8624268c83.2155762,0,162.8686829-13.8468628,198.9280396-32.2437134
		l-37.8437195-21.7593384V693.9371948z"/>
	<path id="Vector_3" fill="#F29111" d="M481.0810547,71.6093521c0,153.9005737-211.2133484,212.6517944-211.2133484,322.0436401
		c0,76.7531128,50.9227905,125.0187073,79.2540283,155.2843323l-2.3781128,1.3874512
		c-35.6631165-22.15625-129.3821411-78.1374512-129.3821411-170.5186768
		c0-129.5693207,242.5195923-191.6833496,242.5195923-338.8582764c0-18.1989956-2.7749939-32.0460854-4.5562439-39.5630913
		L457.7029419,0c7.7250061,9.6929655,23.1812439,33.8265495,23.1812439,71.6093521H481.0810547z M550.4310303,207.7064819
		l-2.5749512-1.3846741c-45.9687805,15.429657-187.4405823,71.2137146-187.4405823,175.0655518
		c0,58.7531128,57.4624634,91.3937073,57.4624634,146.3843079c0,19.5843506-11.0968628,38.1781006-20.2124939,49.0593262
		l4.5593567,2.5718994c23.9718933-15.6281128,66.375-49.2562256,66.375-92.5780945
		c0-36.7937317-50.921875-80.9062195-50.921875-128.1843262c0-74.3793335,98.2749939-132.9327393,132.7530823-151.1318054
		V207.7064819z"/>
</g>
</svg>
